<?xml version="1.0" encoding="UTF-8" standalone="no"?>
<svg
   xmlns:dc="http://purl.org/dc/elements/1.1/"
   xmlns:cc="http://creativecommons.org/ns#"
   xmlns:rdf="http://www.w3.org/1999/02/22-rdf-syntax-ns#"
   xmlns:svg="http://www.w3.org/2000/svg"
   xmlns="http://www.w3.org/2000/svg"
   xmlns:sodipodi="http://sodipodi.sourceforge.net/DTD/sodipodi-0.dtd"
   xmlns:inkscape="http://www.inkscape.org/namespaces/inkscape"
   aria-hidden="true"
   focusable="false"
   data-prefix="fab"
   data-icon="bootstrap"
   class="svg-inline--fa fa-bootstrap fa-w-14"
   role="img"
   viewBox="0 0 448 512"
   version="1.1"
   id="svg827"
   sodipodi:docname="bootstrap-brands.svg"
   inkscape:version="0.92.4 (5da689c313, 2019-01-14)">
  <metadata
     id="metadata833">
    <rdf:RDF>
      <cc:Work
         rdf:about="">
        <dc:format>image/svg+xml</dc:format>
        <dc:type
           rdf:resource="http://purl.org/dc/dcmitype/StillImage" />
      </cc:Work>
    </rdf:RDF>
  </metadata>
  <defs
     id="defs831" />
  <sodipodi:namedview
     pagecolor="#ffffff"
     bordercolor="#666666"
     borderopacity="1"
     objecttolerance="10"
     gridtolerance="10"
     guidetolerance="10"
     inkscape:pageopacity="0"
     inkscape:pageshadow="2"
     inkscape:window-width="2560"
     inkscape:window-height="1017"
     id="namedview829"
     showgrid="false"
     inkscape:zoom="0.5855728"
     inkscape:cx="814.49405"
     inkscape:cy="94.672225"
     inkscape:window-x="1912"
     inkscape:window-y="-8"
     inkscape:window-maximized="1"
     inkscape:current-layer="svg827" />
  <path
     fill="currentColor"
     d="M292.3 311.93c0 42.41-39.72 41.43-43.92 41.43h-80.89v-81.69h80.89c42.56 0 43.92 31.9 43.92 40.26zm-50.15-73.13c.67 0 38.44 1 38.44-36.31 0-15.52-3.51-35.87-38.44-35.87h-74.66v72.18h74.66zM448 106.67v298.66A74.89 74.89 0 0 1 373.33 480H74.67A74.89 74.89 0 0 1 0 405.33V106.67A74.89 74.89 0 0 1 74.67 32h298.66A74.89 74.89 0 0 1 448 106.67zM338.05 317.86c0-21.57-6.65-58.29-49.05-67.35v-.73c22.91-9.78 37.34-28.25 37.34-55.64 0-7 2-64.78-77.6-64.78h-127v261.33c128.23 0 139.87 1.68 163.6-5.71 14.21-4.42 52.71-17.98 52.71-67.12z"
     id="path825" />
  <path
     style="opacity:0.98999999;fill:#563d7c;fill-opacity:1;fill-rule:evenodd;stroke:#000000;stroke-width:2.26771665;stroke-linecap:round;stroke-linejoin:round;stroke-miterlimit:4;stroke-dasharray:none;stroke-opacity:0.98550726;paint-order:markers fill stroke"
     d="M 65.14717,479.07207 C 54.319162,477.67901 41.843539,472.83766 32.399097,466.36369 26.403962,462.25415 17.745852,453.59604 13.636312,447.60091 6.7456091,437.54852 2.1981349,425.40158 0.84519432,413.43405 0.38110068,409.32888 0.24462074,361.67647 0.38322445,252.13585 0.56938669,105.00907 0.63816489,96.421096 1.6646113,92.135849 5.1991269,77.379823 11.023328,66.232341 20.563781,55.962963 31.752488,43.9194 47.096874,35.809342 63.573615,33.230724 68.647348,32.436683 89.105425,32.345107 226.95849,32.499366 l 157.58491,0.17634 6.11722,1.627985 c 7.70277,2.049946 15.66029,5.465622 22.41261,9.620352 7.20103,4.430835 18.56948,15.797699 22.99728,22.994085 5.59118,9.087198 9.54967,19.855998 10.91973,29.706373 0.44709,3.214485 0.64675,52.620919 0.64507,159.630509 -0.002,134.28572 -0.12233,155.71446 -0.90056,160.51276 -2.64792,16.32626 -10.76239,31.5803 -22.69771,42.66845 -10.21268,9.48778 -21.50767,15.38872 -36.17289,18.89813 -4.28989,1.02658 -12.79294,1.08884 -161.50943,1.18255 -90.22498,0.0569 -158.778418,-0.13231 -161.20755,-0.44483 z m 189.47487,-88.69516 c 12.92793,-0.78324 21.64226,-2.2898 31.47634,-5.44177 14.46268,-4.63549 24.61154,-10.33652 33.14279,-18.61769 13.56377,-13.16617 20.00877,-31.19851 18.91421,-52.91974 -1.68698,-33.47742 -17.85041,-55.31642 -46.261,-62.50493 l -2.68675,-0.6798 4.79996,-2.51275 c 6.6363,-3.47407 10.10809,-5.95538 15.28095,-10.92142 7.77346,-7.46265 11.77902,-14.16012 14.89069,-24.89786 2.99437,-10.33294 3.09007,-25.32274 0.23445,-36.72623 -1.59652,-6.37551 -6.95156,-17.14164 -10.96151,-22.03774 -8.73376,-10.66382 -22.63645,-18.27673 -39.66219,-21.71842 -10.89736,-2.20285 -18.61123,-2.41991 -86.22772,-2.42629 L 121.6,128.96604 v 131.01887 131.01886 l 61.43396,-0.006 c 34.59113,-0.003 65.87069,-0.27464 71.58808,-0.62103 z"
     id="path4538"
     inkscape:connector-curvature="0" />
  <path
     style="opacity:0.98999999;fill:#563d7c;fill-opacity:1;fill-rule:evenodd;stroke:#000000;stroke-width:2.26771665;stroke-linecap:round;stroke-linejoin:round;stroke-miterlimit:4;stroke-dasharray:none;stroke-opacity:0.98550726;paint-order:markers fill stroke"
     d="M 60.920755,476.94971 C 47.03503,473.99604 35.138453,467.83742 25.265131,458.49149 13.474687,447.33086 6.6196565,435.18919 3.1612961,419.34105 L 1.7866174,413.04151 1.9242611,258.26427 C 1.9999651,173.13679 2.3026826,100.71411 2.5969667,97.324975 3.5440854,86.417449 8.6985835,73.573378 16.17592,63.488696 27.109364,48.742761 43.351324,38.505292 61.177564,35.123712 68.216417,33.788465 142.68461,33.41044 277.0717,34.027762 l 110.49056,0.507551 6.59833,2.244369 c 7.06108,2.401771 15.57356,6.452262 20.16403,9.594644 3.86893,2.648443 14.72136,13.271495 18.06795,17.686051 3.71517,4.900756 9.41141,16.840831 11.37764,23.849057 l 1.60925,5.735849 0.55866,37.132077 c 0.30727,20.42264 0.42955,92.55849 0.27174,160.30189 -0.31032,133.21103 -0.12011,125.64935 -3.42477,136.15094 -1.83133,5.8196 -7.36968,16.6235 -10.98757,21.43396 -12.04211,16.0115 -31.50613,27.33814 -49.36733,28.72816 -3.48679,0.27136 -76.30189,0.48506 -161.81132,0.4749 -135.342831,-0.0161 -156.018894,-0.13488 -159.698115,-0.9175 z M 265.90189,390.78785 c 28.46195,-4.14954 50.63107,-15.86597 62.07689,-32.80779 7.28184,-10.77839 10.71452,-21.67303 11.37702,-36.10836 1.21032,-26.37231 -7.63399,-48.88859 -24.09209,-61.33474 -5.19597,-3.92936 -13.79767,-8.38552 -18.72031,-9.69814 -1.57736,-0.42061 -2.86211,-0.91217 -2.85501,-1.09234 0.007,-0.18019 2.34943,-1.68221 5.20516,-3.33783 6.70224,-3.88566 14.91788,-11.60567 19.18345,-18.02617 3.55713,-5.35415 6.53477,-12.22628 7.95961,-18.37006 2.32695,-10.03362 2.17958,-24.89851 -0.34559,-34.8577 -1.45618,-5.74316 -6.28955,-15.99496 -9.97807,-21.16395 -8.07657,-11.3183 -23.46162,-20.17008 -41.41673,-23.8291 -10.1749,-2.07352 -21.48542,-2.37787 -88.84716,-2.39074 l -65.05661,-0.0124 V 260.0257 392.29286 l 69.28302,-0.24634 c 60.79699,-0.21617 70.13347,-0.37033 76.22642,-1.25863 z"
     id="path4540"
     inkscape:connector-curvature="0" />
  <path
     style="opacity:0.98999999;fill:#563d7c;fill-opacity:1;fill-rule:evenodd;stroke:#000000;stroke-width:2.26771665;stroke-linecap:round;stroke-linejoin:round;stroke-miterlimit:4;stroke-dasharray:none;stroke-opacity:0.98550726;paint-order:markers fill stroke"
     d="m 167.48679,312.48843 v -40.4776 l 46.03774,0.19069 c 45.28902,0.18758 46.11433,0.21226 50.74746,1.5173 13.71968,3.8645 22.62531,12.5581 26.23214,25.60757 1.48692,5.37967 1.47334,20.35095 -0.0234,25.82245 -3.86484,14.1281 -14.24287,23.48812 -29.54348,26.64547 -5.21549,1.07623 -8.62737,1.15641 -49.5259,1.16379 l -43.92454,0.008 z"
     id="path4542"
     inkscape:connector-curvature="0" />
  <path
     style="opacity:0.98999999;fill:#563d7c;fill-opacity:1;fill-rule:evenodd;stroke:#000000;stroke-width:2.26771665;stroke-linecap:round;stroke-linejoin:round;stroke-miterlimit:4;stroke-dasharray:none;stroke-opacity:0.98550726;paint-order:markers fill stroke"
     d="m 167.48679,202.62333 v -35.67218 l 43.01887,0.1975 c 38.87355,0.17846 43.36795,0.2996 46.64151,1.25713 15.48749,4.53016 22.143,13.44104 23.0302,30.83446 0.96991,19.01498 -7.22922,31.62931 -24.23775,37.28969 l -4.22641,1.40653 -42.11321,0.17952 -42.11321,0.17953 z"
     id="path4544"
     inkscape:connector-curvature="0" />
</svg>
