<?xml version="1.0" encoding="UTF-8" standalone="no"?>
<svg
   xmlns:dc="http://purl.org/dc/elements/1.1/"
   xmlns:cc="http://creativecommons.org/ns#"
   xmlns:rdf="http://www.w3.org/1999/02/22-rdf-syntax-ns#"
   xmlns:svg="http://www.w3.org/2000/svg"
   xmlns="http://www.w3.org/2000/svg"
   xmlns:sodipodi="http://sodipodi.sourceforge.net/DTD/sodipodi-0.dtd"
   xmlns:inkscape="http://www.inkscape.org/namespaces/inkscape"
   aria-hidden="true"
   focusable="false"
   data-prefix="fas"
   data-icon="graduation-cap"
   class="svg-inline--fa fa-graduation-cap fa-w-20"
   role="img"
   viewBox="0 0 640 512"
   version="1.1"
   id="svg827"
   sodipodi:docname="graduation-cap-solid.svg"
   inkscape:version="0.92.4 (5da689c313, 2019-01-14)">
  <metadata
     id="metadata833">
    <rdf:RDF>
      <cc:Work
         rdf:about="">
        <dc:format>image/svg+xml</dc:format>
        <dc:type
           rdf:resource="http://purl.org/dc/dcmitype/StillImage" />
      </cc:Work>
    </rdf:RDF>
  </metadata>
  <defs
     id="defs831" />
  <sodipodi:namedview
     pagecolor="#ffffff"
     bordercolor="#666666"
     borderopacity="1"
     objecttolerance="10"
     gridtolerance="10"
     guidetolerance="10"
     inkscape:pageopacity="0"
     inkscape:pageshadow="2"
     inkscape:window-width="1920"
     inkscape:window-height="1017"
     id="namedview829"
     showgrid="false"
     inkscape:zoom="1.65625"
     inkscape:cx="327.84906"
     inkscape:cy="256"
     inkscape:window-x="-8"
     inkscape:window-y="-8"
     inkscape:window-maximized="1"
     inkscape:current-layer="svg827" />
  <path
     fill="currentColor"
     d="M622.34 153.2L343.4 67.5c-15.2-4.67-31.6-4.67-46.79 0L17.66 153.2c-23.54 7.23-23.54 38.36 0 45.59l48.63 14.94c-10.67 13.19-17.23 29.28-17.88 46.9C38.78 266.15 32 276.11 32 288c0 10.78 5.68 19.85 13.86 25.65L20.33 428.53C18.11 438.52 25.71 448 35.94 448h56.11c10.24 0 17.84-9.48 15.62-19.47L82.14 313.65C90.32 307.85 96 298.78 96 288c0-11.57-6.47-21.25-15.66-26.87.76-15.02 8.44-28.3 20.69-36.72L296.6 284.5c9.06 2.78 26.44 6.25 46.79 0l278.95-85.7c23.55-7.24 23.55-38.36 0-45.6zM352.79 315.09c-28.53 8.76-52.84 3.92-65.59 0l-145.02-44.55L128 384c0 35.35 85.96 64 192 64s192-28.65 192-64l-14.18-113.47-145.03 44.56z"
     id="path825" />
  <path
     style="fill:#ff7700;stroke:none;stroke-width:16.80677414;stroke-linecap:butt;stroke-miterlimit:4;stroke-dasharray:none;stroke-opacity:1;fill-opacity:1"
     d="m 31.09434,446.83074 c -5.59009,-1.73575 -10.088245,-7.25635 -10.658764,-13.08151 -0.261203,-2.66697 1.846052,-12.8999 12.684613,-61.59712 l 12.997854,-58.39882 -3.738266,-3.5933 C 30.089722,298.34652 28.94588,281.92135 39.484766,268.58866 c 1.347008,-1.70409 3.901211,-4.12797 5.676008,-5.3864 l 3.226902,-2.28806 1.0003,-7.33249 c 1.736296,-12.72755 6.861823,-25.67471 14.033941,-35.44995 2.065666,-2.81539 2.936368,-4.46918 2.483309,-4.71669 -0.383723,-0.20964 -11.973151,-3.82739 -25.754283,-8.03944 -26.951975,-8.2376 -29.577652,-9.34494 -34.1470444,-14.40106 -3.8416401,-4.25085 -5.35461178,-8.54253 -5.36421184,-15.21608 -0.00665,-4.62299 0.23158026,-5.9492 1.59628204,-8.88638 2.1567895,-4.64194 6.3960348,-9.03123 10.9368702,-11.32398 4.006156,-2.02277 283.166061,-87.991995 291.681891,-89.825449 6.8531,-1.475473 23.48399,-1.464986 30.3851,0.01916 8.64764,1.859752 287.55498,87.752569 291.58734,89.797779 4.54128,2.30333 8.78448,6.69999 10.93688,11.33249 2.21584,4.7691 2.28268,12.56973 0.15366,17.93853 -1.6407,4.13727 -6.67683,9.62414 -10.7328,11.69334 -1.37305,0.70046 -26.90039,8.77076 -56.72746,17.934 -29.82707,9.16323 -92.67632,28.4797 -139.665,42.92549 -46.98868,14.44579 -87.87924,26.912 -90.86792,27.7027 -10.39566,2.75031 -20.18474,3.32441 -30.79245,1.80587 -7.30464,-1.04569 -5.88116,-0.63487 -62.79246,-18.12182 -25.23773,-7.75471 -68.07293,-20.91439 -95.18933,-29.24372 -27.11639,-8.32933 -49.7496,-15.14424 -50.296,-15.14424 -0.5464,0 -3.383335,2.37736 -6.304295,5.28302 -8.028256,7.98619 -12.124093,15.82303 -13.9447,26.6813 l -0.75328,4.4926 2.338143,1.81183 c 10.92532,8.46602 15.673148,20.78745 12.582425,32.65354 -1.383366,5.3111 -3.720912,9.18535 -8.531985,14.1409 l -4.329395,4.45942 12.983233,58.33303 c 10.826084,48.6411 12.931184,58.86443 12.669994,61.53133 -0.58313,5.95394 -5.10361,11.38588 -10.919298,13.12094 -4.260673,1.27114 -61.440811,1.23675 -65.550792,-0.0394 z"
     id="path837"
     inkscape:connector-curvature="0" />
  <path
     style="fill:#ff7700;stroke:none;stroke-width:16.80677414;stroke-linecap:butt;stroke-miterlimit:4;stroke-dasharray:none;stroke-opacity:1;fill-opacity:1"
     d="m 293.43396,447.0949 c -72.082,-3.38155 -132.23902,-20.16532 -155.50649,-43.38622 -5.12366,-5.11341 -8.61873,-11.20182 -9.3082,-16.21488 -0.30218,-2.19711 1.4714,-18.09035 6.65844,-59.66696 3.88869,-31.16967 7.1138,-56.72879 7.1669,-56.79806 0.0531,-0.0693 5.65499,1.59618 12.44862,3.70097 67.10712,20.79108 138.10058,42.32532 142.61738,43.25972 3.07105,0.63531 9.3427,1.4819 13.93699,1.88131 9.64935,0.83887 21.54308,0.10321 31.19391,-1.92941 4.81748,-1.01464 45.02216,-13.20336 138.55049,-42.00389 8.95749,-2.75831 16.3254,-4.96283 16.37314,-4.89894 0.0478,0.0639 3.26846,25.61863 7.15715,56.7883 5.18704,41.57661 6.96062,57.46985 6.65844,59.66696 -1.77607,12.91358 -17.75617,26.44947 -43.6743,36.99418 -41.67037,16.95346 -108.89487,25.67394 -174.27247,22.60692 z"
     id="path839"
     inkscape:connector-curvature="0" />
</svg>
