<?xml version="1.0" encoding="UTF-8" standalone="no"?>
<svg
   xmlns:dc="http://purl.org/dc/elements/1.1/"
   xmlns:cc="http://creativecommons.org/ns#"
   xmlns:rdf="http://www.w3.org/1999/02/22-rdf-syntax-ns#"
   xmlns:svg="http://www.w3.org/2000/svg"
   xmlns="http://www.w3.org/2000/svg"
   xmlns:sodipodi="http://sodipodi.sourceforge.net/DTD/sodipodi-0.dtd"
   xmlns:inkscape="http://www.inkscape.org/namespaces/inkscape"
   aria-hidden="true"
   focusable="false"
   data-prefix="fab"
   data-icon="html5"
   class="svg-inline--fa fa-html5 fa-w-12"
   role="img"
   viewBox="0 0 384 512"
   version="1.1"
   id="svg2536"
   sodipodi:docname="html5-brands.svg"
   inkscape:version="0.92.4 (5da689c313, 2019-01-14)">
  <metadata
     id="metadata2542">
    <rdf:RDF>
      <cc:Work
         rdf:about="">
        <dc:format>image/svg+xml</dc:format>
        <dc:type
           rdf:resource="http://purl.org/dc/dcmitype/StillImage" />
      </cc:Work>
    </rdf:RDF>
  </metadata>
  <defs
     id="defs2540" />
  <sodipodi:namedview
     pagecolor="#ffffff"
     bordercolor="#666666"
     borderopacity="1"
     objecttolerance="10"
     gridtolerance="10"
     guidetolerance="10"
     inkscape:pageopacity="0"
     inkscape:pageshadow="2"
     inkscape:window-width="1920"
     inkscape:window-height="1017"
     id="namedview2538"
     showgrid="false"
     inkscape:zoom="0.65186406"
     inkscape:cx="500.91435"
     inkscape:cy="225.57969"
     inkscape:window-x="-8"
     inkscape:window-y="-8"
     inkscape:window-maximized="1"
     inkscape:current-layer="svg2536" />
  <path
     fill="currentColor"
     d="M0 32l34.9 395.8L191.5 480l157.6-52.2L384 32H0zm308.2 127.9H124.4l4.1 49.4h175.6l-13.6 148.4-97.9 27v.3h-1.1l-98.7-27.3-6-75.8h47.7L138 320l53.5 14.5 53.7-14.5 6-62.2H84.3L71.5 112.2h241.1l-4.4 47.7z"
     id="path2534"
     style="fill:#000000;fill-opacity:1" />
  <path
     style="fill:#171fff;fill-opacity:1;stroke:none;stroke-width:60.39044189;stroke-linecap:butt;stroke-miterlimit:4;stroke-dasharray:none;stroke-opacity:1"
     d="M 112.5152,452.79134 C 70.827034,438.79051 36.434838,426.42009 36.088097,425.30152 35.741355,424.18297 28.129048,339.30847 19.171857,236.69153 10.214668,134.07458 2.3715981,46.454237 1.7428144,41.979661 L 0.59957109,33.844068 H 191.54046 c 180.43121,0 190.93669,0.208972 190.86462,3.79661 -0.37444,18.636247 -34.47617,387.381192 -35.95011,388.731572 -2.27102,2.08063 -152.76811,52.29941 -155.97405,52.04636 -1.19298,-0.0942 -36.27755,-11.62643 -77.96572,-25.62727 z m 129.85525,-80.73298 c 26.34913,-7.28383 48.18883,-13.50413 48.53266,-13.82287 0.78277,-0.7257 13.40771,-136.73115 13.44744,-144.866 l 0.0291,-5.9661 H 216.8336 129.28752 l -1.40309,-16.59852 c -0.77169,-9.12918 -1.40308,-19.38002 -1.40308,-22.77966 v -6.18114 h 90.92794 90.92795 l 1.20539,-8.1356 c 0.66295,-4.47457 1.83975,-15.70169 2.61508,-24.94915 l 1.40969,-16.81356 H 191.74627 69.925129 l 1.244459,10.30509 c 1.444606,11.96245 11.921937,130.00615 11.921937,134.31944 0,2.3713 15.248773,2.9009 83.525425,2.9009 45.93898,0 83.50371,0.7322 83.4772,1.62712 -0.19526,6.58293 -6.09369,57.29731 -6.73506,57.9065 -0.44546,0.42314 -12.26134,3.83631 -26.25749,7.58485 l -25.44755,6.8155 -25.9014,-6.8869 c -28.14175,-7.48256 -28.33287,-7.64362 -28.39421,-23.92843 -0.0163,-4.32542 -0.6398,-10.91525 -1.38556,-14.64407 l -1.35593,-6.77966 H 109.98049 85.344024 l 1.052874,9.22034 c 0.57908,5.07119 2.075155,22.369 3.324609,38.43955 1.249453,16.07057 2.465458,29.39346 2.702232,29.6064 1.29014,1.16029 94.386161,26.55314 97.878911,26.69744 2.28816,0.0946 25.71868,-5.78764 52.0678,-13.07147 z"
     id="path3087"
     inkscape:connector-curvature="0" />
</svg>
