<?xml version="1.0" encoding="UTF-8" standalone="no"?>
<!-- Created with Inkscape (http://www.inkscape.org/) -->

<svg
   xmlns:dc="http://purl.org/dc/elements/1.1/"
   xmlns:cc="http://creativecommons.org/ns#"
   xmlns:rdf="http://www.w3.org/1999/02/22-rdf-syntax-ns#"
   xmlns:svg="http://www.w3.org/2000/svg"
   xmlns="http://www.w3.org/2000/svg"
   xmlns:sodipodi="http://sodipodi.sourceforge.net/DTD/sodipodi-0.dtd"
   xmlns:inkscape="http://www.inkscape.org/namespaces/inkscape"
   width="119mm"
   height="134mm"
   viewBox="0 0 119 134"
   version="1.1"
   id="svg8"
   inkscape:version="0.92.4 (5da689c313, 2019-01-14)"
   sodipodi:docname="node-js-brands.svg">
  <defs
     id="defs2" />
  <sodipodi:namedview
     id="base"
     pagecolor="#ffffff"
     bordercolor="#666666"
     borderopacity="1.0"
     inkscape:pageopacity="0.0"
     inkscape:pageshadow="2"
     inkscape:zoom="0.35"
     inkscape:cx="-111.42857"
     inkscape:cy="560"
     inkscape:document-units="mm"
     inkscape:current-layer="layer1"
     showgrid="false"
     inkscape:window-width="2560"
     inkscape:window-height="1017"
     inkscape:window-x="1912"
     inkscape:window-y="-8"
     inkscape:window-maximized="1" />
  <metadata
     id="metadata5">
    <rdf:RDF>
      <cc:Work
         rdf:about="">
        <dc:format>image/svg+xml</dc:format>
        <dc:type
           rdf:resource="http://purl.org/dc/dcmitype/StillImage" />
        <dc:title></dc:title>
      </cc:Work>
    </rdf:RDF>
  </metadata>
  <g
     inkscape:label="Layer 1"
     inkscape:groupmode="layer"
     id="layer1"
     transform="translate(0,-163)">
    <path
       id="path815"
       d="m 59.473546,296.66839 c -1.77271,0 -3.571879,-0.47625 -5.13292,-1.37583 l -16.324793,-9.65729 c -2.434166,-1.37584 -1.24354,-1.85209 -0.449791,-2.11667 3.254375,-1.13771 3.915833,-1.37583 7.381875,-3.36021 0.370416,-0.21166 0.846666,-0.13229 1.217083,0.10584 l 12.541246,7.43479 c 0.4498,0.26458 1.0848,0.26458 1.50813,0 l 48.868544,-28.20459 c 0.44979,-0.26458 0.74083,-0.79375 0.74083,-1.32291 v -56.40918 c 0,-0.55562 -0.29104,-1.05833 -0.76729,-1.34937 L 60.214376,172.23484 c -0.449789,-0.26458 -1.058329,-0.26458 -1.508129,0 L 9.8906255,200.43942 c -0.47625,0.26459 -0.767292,0.79375 -0.767292,1.34938 v 56.38272 c 0,0.52916 0.291042,1.05833 0.767292,1.29646 l 13.3879165,7.72583 c 7.276041,3.62479 11.721041,-0.635 11.721041,-4.94771 v -55.66834 c 0,-0.79375 0.635,-1.40229 1.42875,-1.40229 h 6.19125 c 0.767292,0 1.42875,0.60854 1.42875,1.40229 v 55.6948 c 0,9.68375 -5.291666,15.24 -14.472708,15.24 -2.831042,0 -5.053542,0 -11.244792,-3.06917 L 5.5250005,267.06152 c -3.175,-1.82563 -5.132917,-5.23875 -5.132917,-8.91646 v -56.38272 c 0,-3.65125 1.957917,-7.09083 5.132917,-8.91646 L 54.340626,164.6413 c 3.09562,-1.74625 7.19667,-1.74625 10.26583,0 L 113.475,192.87234 c 3.175,1.82563 5.13292,5.23875 5.13292,8.91646 v 56.38272 c 0,3.65125 -1.95792,7.06437 -5.13292,8.91646 l -48.868543,28.20458 c -1.56104,0.89958 -3.33375,1.37583 -5.132911,1.37583 z m 39.44937,-55.58896 c 0,-10.55687 -7.14375,-13.36145 -22.14562,-15.34583 -15.18709,-2.01083 -16.72167,-3.04271 -16.72167,-6.58812 0,-2.93688 1.29646,-6.85271 12.54125,-6.85271 10.02771,0 13.73187,2.16958 15.26646,8.94291 0.13229,0.635 0.71437,1.11125 1.37583,1.11125 h 6.35 c 0.39688,0 0.76729,-0.15875 1.03188,-0.44979 0.26458,-0.29104 0.39687,-0.68791 0.37041,-1.08479 -0.97896,-11.66812 -8.73125,-17.09209 -24.39458,-17.09209 -13.94354,0 -22.251459,5.87376 -22.251459,15.74272 0,10.68916 8.281459,13.6525 21.642919,14.97541 16.00729,1.56104 17.25083,3.91584 17.25083,7.06438 0,5.45041 -4.39208,7.77875 -14.68437,7.77875 -12.93813,0 -15.76917,-3.25438 -16.72167,-9.68375 -0.10583,-0.68792 -0.68792,-1.19063 -1.40229,-1.19063 h -6.323544 c -0.79375,0 -1.402292,0.635 -1.402292,1.40229 0,8.22855 4.471456,18.04459 25.876246,18.04459 15.45167,-0.0265 24.34167,-6.13834 24.34167,-16.77459 z"
       inkscape:connector-curvature="0"
       style="fill:#68a063;fill-opacity:1;stroke-width:0.26458332" />
  </g>
</svg>
