<?xml version="1.0" encoding="UTF-8" standalone="no"?>
<svg
   xmlns:dc="http://purl.org/dc/elements/1.1/"
   xmlns:cc="http://creativecommons.org/ns#"
   xmlns:rdf="http://www.w3.org/1999/02/22-rdf-syntax-ns#"
   xmlns:svg="http://www.w3.org/2000/svg"
   xmlns="http://www.w3.org/2000/svg"
   xmlns:sodipodi="http://sodipodi.sourceforge.net/DTD/sodipodi-0.dtd"
   xmlns:inkscape="http://www.inkscape.org/namespaces/inkscape"
   aria-hidden="true"
   focusable="false"
   data-prefix="fab"
   data-icon="react"
   class="svg-inline--fa fa-react fa-w-16"
   role="img"
   viewBox="0 0 512 512"
   version="1.1"
   id="svg827"
   sodipodi:docname="react-brands.svg"
   inkscape:version="0.92.4 (5da689c313, 2019-01-14)">
  <metadata
     id="metadata833">
    <rdf:RDF>
      <cc:Work
         rdf:about="">
        <dc:format>image/svg+xml</dc:format>
        <dc:type
           rdf:resource="http://purl.org/dc/dcmitype/StillImage" />
      </cc:Work>
    </rdf:RDF>
  </metadata>
  <defs
     id="defs831" />
  <sodipodi:namedview
     pagecolor="#ffffff"
     bordercolor="#666666"
     borderopacity="1"
     objecttolerance="10"
     gridtolerance="10"
     guidetolerance="10"
     inkscape:pageopacity="0"
     inkscape:pageshadow="2"
     inkscape:window-width="2560"
     inkscape:window-height="1017"
     id="namedview829"
     showgrid="false"
     inkscape:zoom="0.828125"
     inkscape:cx="738.2711"
     inkscape:cy="135.87774"
     inkscape:window-x="1912"
     inkscape:window-y="-8"
     inkscape:window-maximized="1"
     inkscape:current-layer="svg827" />
  <path
     style="opacity:1;fill:#61dafb;fill-opacity:1;fill-rule:evenodd;stroke:none;stroke-width:2.26771665;stroke-linecap:round;stroke-linejoin:round;stroke-miterlimit:4;stroke-dasharray:none;stroke-opacity:1;paint-order:markers fill stroke"
     d="m 146.07633,479.12883 c -20.79607,-3.27209 -34.1848,-17.47189 -40.69702,-43.16238 -2.56885,-10.13404 -3.35694,-17.93732 -3.35191,-33.18909 0.006,-18.97936 1.79713,-33.76274 6.6465,-54.86608 0.82962,-3.61031 1.42833,-6.62639 1.33046,-6.7024 -0.0979,-0.076 -3.84587,-1.28962 -8.32889,-2.69692 C 83.148613,332.69607 59.216018,321.95604 45.023945,313.08893 27.137736,301.91375 14.424649,290.04244 6.8543975,277.44672 l -2.9902466,-4.97531 v -16.57383 -16.57384 l 1.8200423,-3.40526 C 10.133221,227.59442 19.03343,217.86294 29.598302,209.77083 46.698128,196.6733 67.70013,186.21876 96.164377,176.63506 c 7.846193,-2.64176 14.228753,-5.0065 14.183463,-5.25497 -0.0453,-0.24849 -0.92478,-4.39141 -1.95442,-9.20651 -4.88876,-22.86222 -6.37082,-37.0887 -5.94396,-57.0566 0.39607,-18.527934 1.84934,-27.29735 6.63525,-40.038872 4.24962,-11.313755 12.05122,-21.349849 20.39835,-26.240727 8.72123,-5.11008 21.34779,-7.088046 33.71021,-5.280746 25.67878,3.754059 60.30974,23.422921 88.69939,50.377341 l 4.40586,4.183128 3.44319,-3.331429 c 4.96228,-4.80121 12.83527,-11.628056 19.4432,-16.859644 30.56088,-24.195475 59.37139,-36.617891 82.04513,-35.375935 11.69359,0.640518 19.52523,3.836324 27.28097,11.132366 10.04069,9.445558 15.87702,21.974086 19.33716,41.509991 1.62379,9.167933 2.23167,30.754177 1.20054,42.631707 -1.09685,12.63441 -4.62928,34.27825 -7.04188,43.14685 -0.30918,1.13653 0.3914,1.48373 7.702,3.81694 50.40887,16.08829 85.85804,39.19901 97.70165,63.69561 5.75759,11.90865 5.55642,23.85683 -0.60567,35.97201 -8.13114,15.98649 -27.60761,32.45581 -54.55885,46.13501 -12.99699,6.59666 -32.35866,14.37343 -44.65805,17.93724 -4.16047,1.20552 -4.69675,1.52069 -4.46017,2.62123 6.0108,27.9623 8.24014,47.67572 7.4132,65.55284 -2.54986,55.12434 -27.03599,80.48254 -68.56819,71.01026 -23.91961,-5.45537 -53.67506,-23.40388 -80.18359,-48.36682 l -5.0184,-4.72579 -4.03821,3.91587 c -20.63471,20.00957 -49.84384,38.85006 -71.35897,46.02802 -12.21383,4.07483 -26.59401,5.93478 -35.29725,4.5654 z m 21.64158,-22.00426 c 5.30623,-1.4038 19.94921,-7.79964 28.3941,-12.40214 14.08248,-7.67501 27.7226,-17.66863 40.37841,-29.58377 l 5.90928,-5.56345 -3.21402,-3.39893 c -8.79788,-9.30401 -25.71249,-30.01775 -35.63629,-43.64043 l -4.68425,-6.43018 -4.36842,-0.40132 c -19.05193,-1.75025 -38.32312,-4.45401 -54.41351,-7.63425 -4.96427,-0.98118 -9.21224,-1.57155 -9.43993,-1.31194 -0.22769,0.25962 -1.11333,3.73241 -1.96809,7.71731 -9.14826,42.64915 -7.4454,77.20219 4.63933,94.13743 4.1351,5.79483 7.8555,7.80441 17.87039,9.65274 2.77229,0.51165 12.93788,-0.18996 16.533,-1.14107 z m 198.87794,0.5807 c 7.57656,-2.24999 15.84827,-12.45134 19.33472,-23.84516 3.13012,-10.22929 4.58135,-41.18614 2.66008,-56.74313 -0.92354,-7.47813 -5.4217,-30.2751 -6.1123,-30.97757 -0.26333,-0.26786 -5.20453,0.47346 -10.98045,1.64737 -14.44917,2.93667 -27.48582,4.9846 -42.80356,6.72402 -7.13962,0.81075 -13.38868,1.47462 -13.88679,1.47526 -0.49812,6.1e-4 -1.85661,1.40918 -3.01887,3.13006 -7.39446,10.94848 -21.43855,29.00905 -33.1577,42.64049 -3.51421,4.08765 -6.46971,7.65667 -6.56778,7.93115 -0.3592,1.00537 13.28404,13.13581 23.56913,20.95572 18.31108,13.92218 38.35006,24.24231 52.98654,27.2882 4.4618,0.92852 14.51426,0.80192 17.97698,-0.22641 z M 259.38577,391.84333 c 6.04543,-6.55851 27.0444,-32.61096 27.04442,-33.55276 0,-0.10585 -13.54968,-0.19246 -30.11041,-0.19246 h -30.11042 l 3.69532,4.79794 c 6.49119,8.42804 26.12329,31.68591 26.77722,31.72259 0.0762,0.004 1.29292,-1.24461 2.70387,-2.77531 z m 37.88503,-55.67228 5.10475,-0.41256 5.6352,-8.75472 c 12.60254,-19.579 25.48846,-42.04092 35.89536,-62.5705 l 4.41087,-8.70127 -4.5283,-8.82819 C 333.68859,227.21309 322.04152,207.07792 309.5693,187.74619 l -7.4578,-11.55946 -9.50104,-0.51601 c -12.2371,-0.6646 -61.04069,-0.66834 -73.2221,-0.005 l -9.38145,0.5104 -6.45608,9.84228 c -12.47574,19.01928 -24.09917,39.1932 -34.15091,59.27318 l -5.43225,10.85179 7.39242,14.44937 c 7.38465,14.43417 15.27678,28.50383 23.0104,41.0217 6.84549,11.08029 15.41472,23.89384 16.17373,24.18455 3.31218,1.26857 71.98971,1.56367 86.72658,0.37266 z m -114.08589,-2.79608 c 0,-0.14867 -1.62221,-2.84523 -3.60491,-5.99235 -6.14492,-9.75376 -15.03863,-24.98735 -20.66597,-35.39771 -2.96182,-5.47925 -5.59696,-10.17652 -5.85589,-10.43839 -0.8396,-0.84916 -16.3638,40.61386 -16.3638,43.70549 0,0.83144 1.7697,1.35284 9.81132,2.8907 8.00813,1.53146 21.48214,3.66065 32.15094,5.08057 2.91222,0.38759 4.52831,0.44173 4.52831,0.15169 z m 163.01886,-2.52459 c 11.04554,-1.6834 29.40739,-5.27915 30.00381,-5.87557 0.91081,-0.91081 -15.4312,-44.47774 -16.67526,-44.45535 -0.19108,0.004 -2.63156,4.28269 -5.4233,9.50944 -5.29804,9.91912 -17.5891,31.15444 -22.1574,38.28145 -1.45943,2.27686 -2.65351,4.30411 -2.65351,4.50502 0,0.45817 4.23938,-0.0346 16.90566,-1.96499 z M 118.50953,312.96604 c 5.19445,-15.91782 12.20162,-33.88215 21.49011,-55.09434 0.73605,-1.68091 0.59799,-2.24605 -1.91746,-7.84906 -5.279,-11.75867 -12.96933,-31.43223 -17.20352,-44.01038 -2.35957,-7.00939 -4.49625,-12.97766 -4.74817,-13.26283 -1.00663,-1.13949 -27.113711,8.0781 -41.62483,14.69641 -30.854945,14.0725 -51.85964,32.37316 -53.004706,46.18115 -0.509973,6.14961 3.597212,16.35531 9.535612,23.69448 7.701709,9.51842 30.070885,23.46483 51.620038,32.18332 6.360235,2.57326 31.700216,11.38206 32.923026,11.44486 0.1756,0.009 1.49405,-3.58361 2.9299,-7.98361 z m 288.2728,3.71567 c 12.95785,-4.35373 22.6846,-8.34469 34.51578,-14.16207 25.37238,-12.47559 42.50498,-26.61047 47.77024,-39.41182 1.79859,-4.37285 1.91791,-10.29797 0.29347,-14.57312 -6.61361,-17.40561 -39.92944,-38.8567 -81.51613,-52.48584 -4.84645,-1.58832 -9.49097,-3.05512 -10.32116,-3.25956 -1.47779,-0.36391 -1.58965,-0.13489 -5.33453,10.92138 -4.51958,13.34343 -11.03882,30.05834 -16.68713,42.78468 l -4.0619,9.15196 4.54074,9.93349 c 5.74462,12.56714 13.12108,31.01646 17.61799,44.06447 1.917,5.56227 3.60693,10.11321 3.7554,10.11321 0.14847,0 4.39072,-1.38455 9.42723,-3.07678 z M 155.80915,225.97772 c 3.70945,-7.37508 13.37339,-24.35137 20.2807,-35.62636 3.6274,-5.92109 6.49372,-10.86716 6.36962,-10.99127 -0.57776,-0.57776 -31.21105,4.3781 -41.68905,6.74445 -4.83853,1.09274 -4.85445,-0.33618 0.15734,14.12257 4.98629,14.38517 11.55328,30.79318 12.17148,30.41111 0.29195,-0.18044 1.51142,-2.27766 2.70991,-4.6605 z m 208.41637,-6.44564 c 4.02427,-10.11661 11.75822,-32.01203 11.42213,-32.33693 -0.42771,-0.41347 -22.48264,-4.58042 -31.55708,-5.96224 -5.64529,-0.85965 -11.28302,-1.71977 -12.52831,-1.91139 -1.24528,-0.19163 -2.26415,-0.18093 -2.26415,0.0238 0,0.20471 1.61567,2.93673 3.59037,6.07115 5.55761,8.82153 14.96433,24.95518 20.86508,35.7861 2.94293,5.40178 5.55736,9.6131 5.80985,9.35849 0.25248,-0.25461 2.35044,-5.21764 4.66211,-11.02896 z M 169.6,159.8091 c 6.97358,-1.01261 16.07547,-2.15779 20.22642,-2.54482 4.15094,-0.38705 7.85459,-0.8672 8.23034,-1.06702 0.37575,-0.19981 4.75763,-5.79726 9.73751,-12.43877 9.54275,-12.72685 18.05963,-23.17804 27.61799,-33.89044 3.17222,-3.55524 5.67255,-6.75789 5.55628,-7.117 -0.11627,-0.35912 -3.18024,-3.31355 -6.80884,-6.565408 -21.90925,-19.634562 -45.99309,-34.417753 -65.04632,-39.926874 -15.743,-4.551985 -27.08622,-3.001853 -33.95736,4.64052 -14.14771,15.735656 -16.11632,55.715852 -5.06265,102.816892 l 0.71625,3.05203 13.05557,-2.559 c 7.18056,-1.40745 18.76123,-3.3875 25.73481,-4.40011 z m 212.67274,3.52278 c 4.00428,-17.36073 6.28247,-36.32697 6.30368,-52.47905 0.0179,-13.641696 -0.75727,-21.212975 -3.12172,-30.490566 -3.63595,-14.266586 -9.34554,-22.41007 -18.02164,-25.70388 -3.99117,-1.515217 -11.89317,-1.778854 -18.11981,-0.604538 -14.07474,2.654428 -34.10641,12.777945 -52.10174,26.33094 -11.2184,8.449018 -25.87566,21.413314 -25.87566,22.886934 0,0.41385 0.58069,1.27003 1.29042,1.90263 1.7725,1.57986 14.30303,16.13432 20.22334,23.4898 4.85404,6.03073 19.15279,25.07061 20.10331,26.76909 0.36589,0.65381 2.69778,1.11919 8.57482,1.71129 15.23972,1.53538 40.20632,5.53048 53.65717,8.5861 2.82264,0.64122 5.40234,1.09991 5.73266,1.01931 0.33033,-0.0806 0.94015,-1.61873 1.35517,-3.41806 z m -96.44634,-9.50591 c 8e-5,-0.91223 -19.19165,-24.49979 -26.16588,-32.15914 l -3.52439,-3.8706 -1.90958,2.20059 c -1.05026,1.21033 -4.37889,5.01411 -7.39696,8.45283 -4.57826,5.21639 -20.77673,25.06087 -20.77677,25.4533 -1e-5,0.0658 13.44904,0.11969 29.88677,0.11969 16.43773,0 29.88679,-0.0885 29.88681,-0.19667 z"
     id="path848"
     inkscape:connector-curvature="0" />
  <path
     style="opacity:1;fill:#61dafb;fill-opacity:1;fill-rule:evenodd;stroke:none;stroke-width:2.26771665;stroke-linecap:round;stroke-linejoin:round;stroke-miterlimit:4;stroke-dasharray:none;stroke-opacity:1;paint-order:markers fill stroke"
     d="m 248.09057,300.76211 c -24.57974,-4.50253 -41.11011,-27.88329 -36.88419,-52.16946 4.03246,-23.17437 24.23514,-39.31976 47.45022,-37.92081 11.53631,0.69518 20.91466,4.9718 29.30721,13.36435 8.39256,8.39255 12.66917,17.7709 13.36435,29.30721 1.38831,23.03867 -14.74563,43.40443 -37.53356,47.37831 -6.23457,1.08721 -9.93734,1.09674 -15.70403,0.0404 z"
     id="path850"
     inkscape:connector-curvature="0" />
</svg>
